<?xml version="1.0" encoding="utf-8"?>
<!-- Generator: Adobe Illustrator 16.0.0, SVG Export Plug-In . SVG Version: 6.00 Build 0)  -->
<!DOCTYPE svg PUBLIC "-//W3C//DTD SVG 1.1//EN" "http://www.w3.org/Graphics/SVG/1.1/DTD/svg11.dtd">
<svg version="1.1" id="Layer_1" xmlns="http://www.w3.org/2000/svg" xmlns:xlink="http://www.w3.org/1999/xlink" x="0px" y="0px"
	 width="103.5px" height="88px" viewBox="0 0 103.5 88" enable-background="new 0 0 103.5 88" xml:space="preserve">
<path fill="none" stroke="#A5A5A5" stroke-width="6" stroke-linecap="round" stroke-linejoin="round" stroke-miterlimit="10" d="
	M96.182,33.409c-0.571-6.129-2.639-13.54-9.933-17.732c-10.501-6.035-20.64-8.526-33.026-8.47
	c-6.561,0.029-21.325,4.658-26.575,7.834c-5.25,3.177-13.553,9.105-16.196,14.611c-1.924,4.005-4.594,11.434-4.594,14.293
	c0,2.476-0.242,12.324,4.375,16.575c6.17,17.702,29.507,26.324,52.859,19.283C86.916,72.618,101.724,51.852,96.182,33.409z"/>
<g>
	<path fill="#753509" d="M53.779,37.323"/>
	<g>
		<path fill="#753509" d="M96.174,33.382C90.61,14.934,66.777,5.807,42.942,12.997C19.107,20.184,4.295,40.967,9.858,59.415
			c5.565,18.45,29.396,27.575,53.232,20.388C86.927,72.614,101.738,51.831,96.174,33.382z M61.115,62.897
			c-10.125,3.053-20.248-0.824-22.612-8.661C36.14,46.4,42.432,37.572,52.556,34.518c10.125-3.054,20.249,0.823,22.612,8.66
			C77.532,51.015,71.24,59.843,61.115,62.897z"/>
	</g>
	<g>
		<path fill="#FF727A" d="M86.248,15.676c-10.5-6.035-20.639-8.525-33.026-8.47c-6.561,0.029-21.325,4.659-26.575,7.835
			S13.094,24.146,10.45,29.652c-1.924,4.005-4.594,11.435-4.594,14.293S5.528,59.509,12.748,62.05
			c7.219,2.541,12.756,4.279,19.359,2.858c3.039-0.654,9.188,2.224,11.813,3.812c2.625,1.587,16.78,6.802,32.485-10.482
			c2.279-2.507,7.875-5.4,12.47-5.717c4.593-0.318,7.477-6.212,7.511-12.158C96.42,34.417,96.748,21.711,86.248,15.676z
			 M67.217,42.674c-1.969,2.859-8.384,9-14.11,8.894c-2.624-0.048-6.234-1.588-15.75-2.542c-9.516-0.953-7.219-13.658-4.595-15.563
			c2.625-1.906,7.802-1.971,9.188-4.129c7.546-11.752,17.063-5.003,17.063-5.003c11.156-1.192,12.853,4.197,13.125,6.909
			C72.598,35.792,69.186,39.816,67.217,42.674z"/>
	</g>
	
		<line fill="none" stroke="#FFDED9" stroke-width="2" stroke-linecap="round" stroke-linejoin="round" stroke-miterlimit="10" x1="21.992" y1="41.438" x2="21.992" y2="47.198"/>
	
		<line fill="none" stroke="#FFDED9" stroke-width="2" stroke-linecap="round" stroke-linejoin="round" stroke-miterlimit="10" x1="46.682" y1="13.897" x2="46.682" y2="19.657"/>
	
		<line fill="none" stroke="#FFDED9" stroke-width="2" stroke-linecap="round" stroke-linejoin="round" stroke-miterlimit="10" x1="85.567" y1="24.772" x2="85.567" y2="30.533"/>
	
		<line fill="none" stroke="#FFDED9" stroke-width="2" stroke-linecap="round" stroke-linejoin="round" stroke-miterlimit="10" x1="28.985" y1="30.712" x2="26.109" y2="35.704"/>
	
		<line fill="none" stroke="#FFDED9" stroke-width="2" stroke-linecap="round" stroke-linejoin="round" stroke-miterlimit="10" x1="39.478" y1="51.081" x2="36.603" y2="56.072"/>
	
		<line fill="none" stroke="#FFDED9" stroke-width="2" stroke-linecap="round" stroke-linejoin="round" stroke-miterlimit="10" x1="52.005" y1="59.22" x2="48.764" y2="63.98"/>
	
		<line fill="none" stroke="#FFDED9" stroke-width="2" stroke-linecap="round" stroke-linejoin="round" stroke-miterlimit="10" x1="70.941" y1="55.246" x2="66.862" y2="59.313"/>
	
		<line fill="none" stroke="#FECF03" stroke-width="2" stroke-linecap="round" stroke-linejoin="round" stroke-miterlimit="10" x1="72.349" y1="48.107" x2="66.688" y2="49.169"/>
	
		<line fill="none" stroke="#FFDED9" stroke-width="2" stroke-linecap="round" stroke-linejoin="round" stroke-miterlimit="10" x1="68.984" y1="13.046" x2="68.818" y2="18.804"/>
	
		<line fill="none" stroke="#FFDED9" stroke-width="2" stroke-linecap="round" stroke-linejoin="round" stroke-miterlimit="10" x1="74.84" y1="17.025" x2="79.011" y2="20.998"/>
	
		<line fill="none" stroke="#FFDED9" stroke-width="2" stroke-linecap="round" stroke-linejoin="round" stroke-miterlimit="10" x1="73.342" y1="38.332" x2="78.041" y2="41.663"/>
	
		<line fill="none" stroke="#FFDED9" stroke-width="2" stroke-linecap="round" stroke-linejoin="round" stroke-miterlimit="10" x1="18.002" y1="53.499" x2="22.279" y2="57.357"/>
	
		<line fill="none" stroke="#FECF03" stroke-width="2" stroke-linecap="round" stroke-linejoin="round" stroke-miterlimit="10" x1="86.576" y1="48.971" x2="80.854" y2="48.306"/>
	
		<line fill="none" stroke="#FECF03" stroke-width="2" stroke-linecap="round" stroke-linejoin="round" stroke-miterlimit="10" x1="56.616" y1="54.416" x2="58.967" y2="59.675"/>
	
		<line fill="none" stroke="#FECF03" stroke-width="2" stroke-linecap="round" stroke-linejoin="round" stroke-miterlimit="10" x1="40.996" y1="58.819" x2="42.492" y2="64.382"/>
	
		<line fill="none" stroke="#FECF03" stroke-width="2" stroke-linecap="round" stroke-linejoin="round" stroke-miterlimit="10" x1="18.158" y1="30.427" x2="19.655" y2="35.989"/>
	
		<line fill="none" stroke="#FECF03" stroke-width="2" stroke-linecap="round" stroke-linejoin="round" stroke-miterlimit="10" x1="16.273" y1="45.06" x2="11.664" y2="48.515"/>
	
		<line fill="none" stroke="#FECF03" stroke-width="2" stroke-linecap="round" stroke-linejoin="round" stroke-miterlimit="10" x1="58.861" y1="16.05" x2="54.253" y2="19.505"/>
	
		<line fill="none" stroke="#FECF03" stroke-width="2" stroke-linecap="round" stroke-linejoin="round" stroke-miterlimit="10" x1="87.872" y1="35.184" x2="83.262" y2="38.639"/>
	
		<line fill="none" stroke="#FECF03" stroke-width="2" stroke-linecap="round" stroke-linejoin="round" stroke-miterlimit="10" x1="35.421" y1="22.497" x2="39.425" y2="26.638"/>
	
		<line fill="none" stroke="#FECF03" stroke-width="2" stroke-linecap="round" stroke-linejoin="round" stroke-miterlimit="10" x1="27.396" y1="51.506" x2="31.401" y2="55.647"/>
	
		<line fill="none" stroke="#FECF03" stroke-width="2" stroke-linecap="round" stroke-linejoin="round" stroke-miterlimit="10" x1="78.313" y1="25.746" x2="75.537" y2="30.794"/>
	
		<line fill="none" stroke="#FFDED9" stroke-width="2" stroke-linecap="round" stroke-linejoin="round" stroke-miterlimit="10" x1="29.602" y1="19.602" x2="26.727" y2="24.594"/>
	
		<line fill="none" stroke="#FFDED9" stroke-width="2" stroke-linecap="round" stroke-linejoin="round" stroke-miterlimit="10" x1="89.887" y1="40.203" x2="89.887" y2="45.964"/>
</g>
</svg>
