<?xml version="1.0" encoding="utf-8"?>
<!-- Generator: Adobe Illustrator 16.0.0, SVG Export Plug-In . SVG Version: 6.00 Build 0)  -->
<!DOCTYPE svg PUBLIC "-//W3C//DTD SVG 1.1//EN" "http://www.w3.org/Graphics/SVG/1.1/DTD/svg11.dtd">
<svg version="1.1" id="Layer_1" xmlns="http://www.w3.org/2000/svg" xmlns:xlink="http://www.w3.org/1999/xlink" x="0px" y="0px"
	 width="202px" height="119px" viewBox="0 0 202 119" enable-background="new 0 0 202 119" xml:space="preserve">
<path fill="none" stroke="#A5A5A5" stroke-width="6" stroke-linecap="round" stroke-linejoin="round" stroke-miterlimit="10" d="
	M180.802,60.118c-1.378-0.18-5.027-0.463-9.576-0.779c2.114-0.728,4.125-2.055,5.57-4.372c4.886-7.839-2.119-11.189-6.887-9.958
	c-0.17,0.043-0.332,0.085-0.498,0.128c-6.058-13.976-29.312-17.973-29.312-17.973c-6.869-5.851-9.975-6.202-31.073-5.101
	c-19.088,0.996-47.374,0.434-56.166-2c-4.572-1.266-18.737-8.688-21.444-8.869c-3.461-0.23,4.4,13.596,4.039,19.986
	s-11.781,6.651-13.223,13.914c-1.443,7.263-5.29,13.438-10.098,16.361c-4.809,2.923,9.25,6.694,21.695,0
	c3.13-1.684,5.968-2.731,8.675-3.39c-2.482,4.578-4.277,9.755-5.267,12.863c-0.73,2.291-3.799,6.375-3.366,8.655
	c1.862,9.826,11.313,5.23,18.389,0.163c-2.656,5.512-4.104,12.617-4.788,16.529c-0.413,2.368-2.901,6.829-2.165,9.031
	c5.198,15.53,25.327-10.009,25.327-10.009c8.147-0.995,12.662-2.673,15.159-4.147c6.223-0.174,13.196-2.336,22.262-3.498
	c2.344-0.3,4.373-0.659,6.142-1.055c3.948,2.845,9.622,6.078,14.785,6.872c12.691,1.953,16.551,0.294,16.086-4.34
	c-0.341-3.403-5.281-6.666-9.584-9.712c0.068,0.028,0.13,0.063,0.199,0.091c4.173,1.676,6.208,2.685,9.367,2.688
	c0.949,0.655,2.675,0.892,3.26,0.116c0.132-0.175,0.178-0.423,0.168-0.708l10.668-3.505c2.177-0.462,4.381-1.691,6.294-3.765
	c1.427,0.001,2.618,0.007,3.416,0.017c4.673,0.059,9.88-0.608,12.401-0.969c4.968-0.709,6.576-0.075,8.755-2.539
	C193.981,66.361,184.952,60.661,180.802,60.118z"/>
<path fill="#C72427" d="M340.719-449.641"/>
<g>
	<path fill="#161514" d="M141.487,57.485c0,0,34.354,1.982,39.315,2.632c4.149,0.543,13.179,6.244,9.212,10.728
		c-2.179,2.464-3.787,1.83-8.755,2.539c-2.521,0.361-7.729,1.028-12.401,0.969c-4.885-0.061-24.344,0.054-24.344,0.054
		L141.487,57.485z"/>
	<g>
		<path fill="#161514" d="M160.56,59.374c0,0,11.35,3.431,16.236-4.408c4.886-7.839-2.119-11.189-6.887-9.958
			c-4.768,1.231-7.837,2.038-7.837,2.038L160.56,59.374z"/>
	</g>
	<path fill="#161514" d="M88.837,88.204c0,0-1.256,5.024-18.202,7.094c0,0-20.129,25.539-25.327,10.009
		c-0.737-2.202,1.751-6.663,2.165-9.031c1.074-6.151,4.037-20.206,10.62-23.531c6.583-3.325,13.784-7.462,25.263,0.192
		C83.356,72.936,92.833,80.136,88.837,88.204z"/>
	<path fill="#FFFFFF" d="M59.206,66.881c0,0,8.947,17.428,15.08,21.293c9.573,6.034,18.833,1.392,33.772-0.521
		c17.844-2.284,17.844-7.934,17.844-7.934s40.512,2.515,16.497-36.645c0,0-10.352-13.41-30.676-6.298
		c0,0-16.452-10.433-38.362,3.024C73.36,39.801,59.119,51.07,59.206,66.881"/>
	<path fill="#161514" d="M79.313,68.524c0,0-1.924,4.809-18.994,4.568c0,0-23.397,22.583-26.447,6.492
		c-0.433-2.281,2.636-6.365,3.366-8.655c1.896-5.949,6.731-19.475,13.704-21.879c6.973-2.404,14.666-5.529,25.005,3.606
		C75.947,52.656,84.362,61.071,79.313,68.524z"/>
	<path fill="#161514" d="M138.828,36.852c0,0-19.342-12.903-28.718,0.216c-5.394,7.546-9.114,25.903-7.394,32.125
		c1.993,7.208,5.697,11.394,6.507,12.996c0.81,1.602,11.019,9.938,19.76,11.283c12.691,1.953,16.551,0.294,16.086-4.34
		c-0.575-5.744-14.254-11.088-15.856-15.669C127.611,68.881,124.716,53.98,138.828,36.852z"/>
	<path fill="#95B704" d="M140.101,27.164c-6.869-5.851-9.975-6.202-31.073-5.101c-19.088,0.996-47.374,0.434-56.166-2
		c-4.572-1.266-18.737-8.688-21.444-8.869c-3.461-0.23,4.4,13.596,4.039,19.986s-11.781,6.651-13.223,13.914
		c-1.443,7.263-5.29,13.438-10.098,16.361c-4.809,2.923,9.25,6.694,21.695,0c12.445-6.694,20.265-3.34,33.666-5.479
		s40.574-12.354,48.744-10.883c5.396,0.973,7.535,2.126,9.801,3.9C127.107,49.827,152.882,38.052,140.101,27.164z"/>
	<path fill="#FFFFFF" d="M159.148,78.101c6.625-1.408,13.527-9.859,11.594-27.933c-1.932-18.074-30.642-23.004-30.642-23.004
		s-15.735,5.752-13.803,25.47c0,0-3.341,21.764,9.387,26.876c4.969,1.996,6.9,3.052,11.318,2.583"/>
	<path fill="#161514" d="M156.407,49.966c0,0,3.53-3.786,2.809-9.485s-11.05-4.675-14.906-2.333
		c-3.857,2.341-3.606,8.896-3.606,8.896L156.407,49.966z"/>
	<path fill="#161514" d="M155.586,63.017c-2.858-1.952-11.133-1.752-12.162,6.298C142.395,77.365,165.504,69.795,155.586,63.017z"/>
	<path fill="#161514" d="M145.579,77.639c1.352-0.09,3.546,3.594,2.732,4.675c-0.704,0.934-3.081,0.41-3.738-0.558
		C143.861,80.708,144.313,77.723,145.579,77.639z"/>
	<circle fill="#FFFFFF" cx="150.728" cy="70.041" r="1.082"/>
</g>
</svg>
